<svg version="1.1" id="Layer_1" xmlns="http://www.w3.org/2000/svg" xmlns:xlink="http://www.w3.org/1999/xlink" x="0px" y="0px"
	 width="100%" viewBox="0 0 500 500" enable-background="new 0 0 500 500" xml:space="preserve">
<path fill="#000000" opacity="1.000000" stroke="none" 
	d="
M490.025665,501.000000 
	C326.687653,501.000000 163.855255,501.000000 1.017155,501.000000 
	C1.011436,334.341919 1.011436,167.683868 1.011436,1.012897 
	C167.657089,1.012897 334.314178,1.012897 500.985657,1.012897 
	C500.985657,167.656113 500.985657,334.312225 500.985657,501.000000 
	C497.510468,501.000000 494.020905,501.000000 490.025665,501.000000 
M381.932983,345.199890 
	C382.265625,344.928070 382.598267,344.656250 382.930908,344.384399 
	C382.554260,344.188965 382.177582,343.993530 381.800964,343.798096 
	C381.743652,344.211182 381.686340,344.624237 381.932983,345.199890 
M360.008698,342.063171 
	C360.008698,342.063171 359.803284,341.904510 359.803284,341.904510 
	C359.803284,341.904510 359.929901,342.129700 360.008698,342.063171 
M373.962341,327.579529 
	C373.962341,327.579529 374.131348,327.463654 374.131348,327.463654 
	C374.131348,327.463654 373.922333,327.473358 373.962341,327.579529 
M378.535522,330.001587 
	C378.535522,330.001587 378.483704,330.016846 378.535522,330.001587 
M363.553864,347.021332 
	C363.553864,347.021332 363.469391,347.050262 363.553864,347.021332 
M385.527649,327.486786 
	C385.527649,327.486786 385.482758,327.500336 385.527649,327.486786 
M376.547363,328.494995 
	C376.547363,328.494995 376.480988,328.524719 376.547363,328.494995 
M365.548248,336.494965 
	C365.548248,336.494965 365.480591,336.525482 365.548248,336.494965 
M361.525604,344.488037 
	C361.525604,344.488037 361.482483,344.501221 361.525604,344.488037 
M365.493439,347.457275 
	C365.493439,347.457275 365.519501,347.518646 365.493439,347.457275 
z"/>
<path fill="#070707" opacity="1.000000" stroke="none" 
	d="
M381.781006,345.118591 
	C381.686340,344.624237 381.743652,344.211182 381.800964,343.798096 
	C382.177582,343.993530 382.554260,344.188965 382.930908,344.384399 
	C382.598267,344.656250 382.265625,344.928070 381.781006,345.118591 
z"/>
<path fill="#070707" opacity="1.000000" stroke="none" 
	d="
M359.969299,342.096436 
	C359.929901,342.129700 359.803284,341.904510 359.803284,341.904510 
	C359.803284,341.904510 360.008698,342.063171 359.969299,342.096436 
z"/>
<path fill="#070707" opacity="1.000000" stroke="none" 
	d="
M373.942322,327.526428 
	C373.922333,327.473358 374.131348,327.463654 374.131348,327.463654 
	C374.131348,327.463654 373.962341,327.579529 373.942322,327.526428 
z"/>
<path fill="#070707" opacity="1.000000" stroke="none" 
	d="
M378.509613,330.009216 
	C378.483704,330.016846 378.535522,330.001587 378.509613,330.009216 
z"/>
<path fill="#070707" opacity="1.000000" stroke="none" 
	d="
M363.511627,347.035797 
	C363.469391,347.050262 363.553864,347.021332 363.511627,347.035797 
z"/>
<path fill="#070707" opacity="1.000000" stroke="none" 
	d="
M385.505188,327.493561 
	C385.482758,327.500336 385.527649,327.486786 385.505188,327.493561 
z"/>
<path fill="#070707" opacity="1.000000" stroke="none" 
	d="
M376.514160,328.509857 
	C376.480988,328.524719 376.547363,328.494995 376.514160,328.509857 
z"/>
<path fill="#070707" opacity="1.000000" stroke="none" 
	d="
M365.514404,336.510223 
	C365.480591,336.525482 365.548248,336.494965 365.514404,336.510223 
z"/>
<path fill="#070707" opacity="1.000000" stroke="none" 
	d="
M361.504028,344.494629 
	C361.482483,344.501221 361.525604,344.488037 361.504028,344.494629 
z"/>
<path fill="#070707" opacity="1.000000" stroke="none" 
	d="
M365.506470,347.487976 
	C365.519501,347.518646 365.493439,347.457275 365.506470,347.487976 
z"/>
</svg>